<?xml version="1.0" standalone="no"?>
<!DOCTYPE svg PUBLIC "-//W3C//DTD SVG 20010904//EN"
 "http://www.w3.org/TR/2001/REC-SVG-20010904/DTD/svg10.dtd">
<svg version="1.0" xmlns="http://www.w3.org/2000/svg"
 width="1862.000000pt" height="1862.000000pt" viewBox="0 0 1862.000000 1862.000000"
 preserveAspectRatio="xMidYMid meet">
<metadata>
Created by potrace 1.14, written by Peter Selinger 2001-2017
</metadata>
<g transform="translate(0.000000,1862.000000) scale(0.100000,-0.100000)"
fill="#000000" stroke="none">
<path d="M15275 13893 c-70 -16 -71 -16 -108 -31 -16 -7 -32 -12 -36 -12 -13
0 -152 -78 -189 -107 -61 -46 -172 -164 -172 -182 0 -5 -4 -11 -9 -13 -11 -4
-94 -158 -85 -158 3 0 2 -6 -4 -12 -13 -17 -39 -110 -47 -168 -3 -25 -8 -52
-10 -60 -4 -13 -316 -15 -2742 -15 -1506 0 -2749 -1 -2763 -4 -16 -3 -104 -82
-243 -220 -120 -119 -219 -217 -221 -219 -2 -2 -21 7 -43 20 -38 24 -124 62
-165 73 -5 2 -9 3 -10 5 -11 8 -222 36 -238 31 -3 -1 -38 -4 -78 -6 -40 -3
-81 -9 -92 -15 -10 -6 -23 -9 -27 -8 -28 6 -170 -57 -253 -111 -47 -31 -175
-150 -205 -192 -65 -90 -123 -213 -140 -300 -16 -78 -19 -103 -19 -189 -1 -84
4 -141 17 -190 62 -257 227 -458 466 -568 110 -52 212 -71 356 -67 143 4 147
5 221 27 175 54 337 173 442 325 23 33 42 66 42 72 0 6 5 11 10 11 6 0 10 5
10 11 0 6 6 25 14 42 76 175 89 364 38 557 -13 50 -61 161 -83 192 -11 14 -19
31 -19 37 0 5 -8 15 -17 20 -10 6 -15 11 -10 11 7 0 -24 38 -77 93 l-28 30
196 196 196 196 2717 0 c1495 1 2727 -2 2738 -5 12 -3 21 -15 23 -30 4 -48 8
-65 21 -110 18 -63 34 -100 85 -195 6 -11 13 -22 16 -25 3 -3 18 -23 34 -45
102 -142 295 -267 470 -305 82 -18 226 -31 226 -21 0 3 14 6 31 5 27 -1 92 9
134 20 108 28 215 80 301 147 48 37 164 155 164 166 0 3 9 17 19 32 29 40 87
160 100 206 50 172 47 376 -6 515 -3 8 -7 20 -8 26 -8 35 -80 164 -120 214
-90 113 -243 225 -365 266 -30 11 -57 21 -60 24 -5 5 -14 6 -67 12 -13 1 -23
5 -23 8 0 12 -247 7 -305 -7z"/>
<path d="M12733 12460 c-2 -3 -17 -6 -31 -6 -101 -5 -302 -83 -372 -144 -14
-12 -36 -29 -50 -37 -22 -14 -86 -83 -149 -160 -10 -13 -29 -44 -42 -70 -13
-27 -26 -50 -30 -53 -5 -5 -40 -94 -45 -115 -2 -5 -9 -41 -17 -80 l-13 -70
-885 -2 c-934 -3 -939 -3 -939 -15 0 -4 -5 -8 -12 -8 -6 0 -1021 -1009 -2254
-2242 l-2242 -2243 -2000 -2 c-1896 -3 -2001 -2 -2006 15 -3 9 -7 34 -10 55
-12 81 -77 237 -130 311 -81 115 -198 214 -323 273 -120 58 -227 81 -368 80
-66 0 -126 -5 -132 -10 -7 -5 -13 -7 -13 -4 0 3 -15 1 -32 -4 -18 -6 -44 -12
-58 -15 -37 -7 -202 -90 -241 -122 -147 -118 -238 -240 -291 -392 -35 -99 -43
-151 -43 -275 0 -87 3 -118 18 -195 1 -8 6 -21 10 -27 5 -7 6 -13 2 -13 -3 0
2 -17 11 -37 8 -21 17 -45 19 -54 2 -9 17 -38 34 -66 17 -28 31 -53 31 -57 0
-4 6 -13 13 -21 6 -7 28 -32 47 -55 29 -36 82 -89 134 -135 17 -15 63 -41 140
-81 69 -36 250 -89 267 -78 5 3 9 2 9 -3 0 -17 204 -2 290 22 30 8 62 17 71
19 19 5 152 68 159 76 3 3 18 14 35 24 51 33 165 140 165 156 0 6 4 10 8 10
17 0 130 195 136 235 1 5 5 16 9 23 5 6 6 12 2 12 -3 0 -1 8 4 18 10 18 21 76
26 130 2 18 5 35 7 37 2 3 911 6 2019 7 1878 2 2016 3 2044 19 17 9 1035 1023
2264 2252 1331 1331 2244 2237 2257 2240 13 2 28 0 35 -4 7 -4 21 -3 30 2 11
6 20 5 24 -1 3 -6 15 -6 30 0 15 6 27 6 30 0 3 -6 15 -6 30 0 15 6 25 6 25 0
0 -5 12 -5 30 0 17 5 30 6 30 2 0 -4 25 -7 55 -7 30 0 55 3 55 7 0 4 14 3 30
-2 18 -5 30 -5 30 0 0 6 10 6 25 0 15 -6 26 -6 30 1 4 6 13 6 23 0 9 -5 26 -5
39 0 13 5 23 5 23 1 0 -9 104 -7 119 2 6 4 11 4 11 -1 0 -9 51 -10 66 -1 5 3
18 2 29 -2 11 -4 30 -4 43 1 12 5 22 5 22 1 0 -8 52 -8 66 0 5 3 18 2 29 -2
11 -4 30 -4 43 1 12 5 22 5 22 1 0 -8 52 -8 66 0 5 3 18 2 29 -2 11 -4 30 -4
43 1 12 5 22 5 22 1 0 -6 59 -8 68 -2 7 5 73 2 78 -3 3 -3 17 -2 30 3 14 6 26
6 29 0 3 -5 15 -6 28 -1 12 5 32 5 44 0 13 -5 25 -4 28 1 4 6 13 7 23 1 11 -6
24 -6 34 0 10 6 19 6 23 0 3 -7 15 -7 30 -1 15 6 27 6 30 0 3 -6 15 -6 29 0
13 5 27 6 30 3 3 -3 18 -6 32 -7 23 -1 27 -6 30 -36 6 -56 11 -81 29 -140 20
-66 74 -182 89 -192 6 -5 7 -8 1 -8 -6 0 -6 -3 0 -8 6 -4 22 -23 35 -42 68
-99 209 -212 334 -269 91 -41 195 -64 311 -66 98 -3 218 12 265 32 8 3 17 7
20 7 22 4 130 52 130 58 0 5 5 8 11 8 12 0 118 75 159 112 50 46 118 134 157
203 21 39 40 72 40 75 1 3 7 19 13 35 29 76 54 210 53 285 -1 63 -14 173 -23
189 -5 10 -7 20 -5 23 10 10 -80 219 -97 226 -4 2 -8 8 -8 14 0 23 -130 166
-190 208 -19 13 -41 30 -48 37 -23 22 -179 92 -244 108 -83 22 -271 38 -285
25z"/>
<path d="M10831 10284 c-14 -6 -120 -109 -236 -229 -115 -119 -259 -268 -320
-330 -230 -236 -630 -647 -1050 -1080 -44 -45 -197 -203 -340 -350 -404 -416
-435 -448 -680 -700 -126 -131 -301 -310 -387 -398 -87 -89 -158 -162 -158
-163 0 -1 -53 -56 -117 -122 -65 -66 -226 -231 -358 -367 -132 -136 -285 -293
-340 -350 -55 -56 -194 -200 -310 -320 -115 -119 -223 -230 -240 -246 l-30
-29 -1077 0 c-593 0 -1078 3 -1079 8 -1 4 -2 18 -3 32 -11 129 -84 301 -176
414 -60 74 -161 159 -240 202 -61 34 -154 72 -185 77 -11 1 -25 6 -30 9 -11 7
-175 23 -210 21 -180 -11 -323 -60 -458 -156 -75 -54 -197 -176 -197 -198 0
-4 -6 -14 -13 -21 -26 -27 -76 -136 -103 -223 -41 -134 -40 -326 1 -465 33
-110 101 -230 184 -325 18 -20 87 -81 125 -109 68 -51 216 -122 237 -113 3 1
13 -4 22 -12 10 -7 17 -11 17 -8 0 3 23 -1 50 -8 51 -13 267 -14 320 -1 56 13
136 40 144 48 6 4 16 8 22 8 23 0 138 72 199 124 164 140 251 295 290 516 3
19 7 35 8 37 3 2 45 3 136 3 35 -1 66 1 68 4 3 3 13 1 22 -4 10 -5 33 -5 54 0
21 4 39 4 42 0 3 -5 18 -5 34 0 16 4 33 4 37 0 5 -5 27 -5 50 -1 22 4 50 4 62
0 12 -5 24 -4 28 2 4 6 11 6 19 -1 8 -7 18 -9 24 -6 5 3 26 6 48 6 34 0 81 0
131 0 9 0 68 0 130 -1 63 0 116 2 119 5 3 3 13 1 22 -4 10 -5 33 -5 54 -1 20
5 38 6 41 4 7 -7 186 -9 186 -2 0 7 32 5 45 -3 6 -3 28 -3 51 1 22 4 50 4 62
0 12 -5 24 -4 28 2 4 6 11 6 19 -1 8 -7 18 -9 24 -6 9 6 18 6 174 5 49 0 91 2
94 5 3 3 13 1 22 -4 10 -5 33 -5 54 0 21 4 39 4 42 0 3 -5 18 -5 34 0 16 4 32
6 35 3 7 -7 162 -6 193 1 37 8 57 22 125 93 173 180 431 445 503 519 44 44
188 193 320 329 132 136 283 291 335 345 52 54 201 207 332 341 130 134 283
292 340 350 56 59 207 213 333 344 127 130 294 303 373 383 79 81 236 243 350
361 114 117 254 262 312 321 58 59 200 206 317 326 117 120 267 276 335 345
68 70 234 241 370 380 l246 254 2584 -1 c1493 0 2594 4 2610 9 24 8 37 27 44
65 1 7 -8 25 -21 40 l-23 27 -2612 0 c-1915 0 -2620 -3 -2639 -11z"/>
<path d="M17630 9694 c-179 -39 -358 -145 -465 -275 -38 -47 -75 -98 -75 -104
0 -4 -8 -19 -19 -33 -23 -34 -68 -147 -76 -192 -3 -18 -8 -36 -10 -39 -2 -4
-6 -29 -9 -55 -3 -27 -8 -52 -11 -55 -9 -8 -115 -7 -115 2 0 4 -5 5 -12 1 -17
-11 -148 -11 -148 -1 0 4 -5 5 -12 1 -18 -12 -72 -11 -80 1 -5 7 -8 6 -8 -1 0
-9 -156 -12 -195 -4 -5 1 -14 1 -20 0 -33 -8 -251 -3 -257 5 -5 7 -8 6 -8 -1
0 -9 -156 -12 -195 -4 -5 1 -14 1 -20 0 -33 -8 -251 -3 -257 5 -5 7 -8 6 -8
-1 0 -9 -110 -12 -145 -4 -5 1 -12 1 -15 0 -15 -7 -220 -4 -220 3 0 4 -5 5
-12 1 -17 -11 -148 -11 -148 -1 0 4 -5 5 -12 1 -17 -11 -148 -11 -148 -1 0 4
-5 5 -12 1 -17 -11 -148 -11 -148 -1 0 4 -5 5 -12 1 -18 -12 -72 -11 -80 1 -5
7 -8 6 -8 -1 0 -9 -156 -12 -195 -4 -5 1 -14 1 -20 0 -33 -8 -251 -3 -257 5
-5 7 -8 6 -8 -1 0 -9 -156 -12 -195 -4 -5 1 -14 1 -20 0 -33 -8 -251 -3 -257
5 -5 7 -8 6 -8 -1 0 -9 -110 -12 -145 -4 -5 1 -12 1 -15 0 -15 -7 -220 -4
-220 3 0 4 -5 5 -12 1 -17 -11 -148 -11 -148 -1 0 4 -5 5 -12 1 -17 -11 -148
-11 -148 -1 0 4 -5 5 -12 1 -17 -11 -148 -11 -148 -1 0 4 -5 5 -12 1 -18 -12
-72 -11 -80 1 -5 7 -8 6 -8 -1 0 -9 -156 -12 -195 -4 -5 1 -14 1 -20 0 -33 -8
-251 -3 -257 5 -5 7 -8 6 -8 -1 0 -11 -180 -11 -199 0 -5 4 -12 3 -15 -2 -5
-9 -213 -8 -223 1 -3 4 -12 2 -20 -4 -7 -6 -13 -9 -13 -5 0 3 -16 0 -35 -8
-21 -9 -136 -117 -296 -277 l-262 -263 -50 28 c-179 100 -379 131 -577 91 -47
-9 -91 -22 -97 -27 -7 -6 -13 -7 -13 -3 0 4 -6 2 -13 -4 -8 -6 -17 -8 -20 -4
-4 3 -7 1 -7 -5 0 -7 -3 -11 -7 -10 -28 6 -176 -89 -248 -159 -74 -72 -111
-120 -147 -193 -18 -36 -36 -67 -39 -70 -6 -5 -36 -92 -44 -128 -3 -12 -7 -32
-10 -44 -3 -13 -8 -47 -10 -77 -2 -29 -6 -56 -9 -59 -3 -2 -1 -13 4 -23 7 -12
7 -20 0 -24 -6 -4 -7 -11 -4 -17 4 -6 8 -29 10 -52 3 -50 13 -106 20 -118 3
-5 8 -20 10 -35 3 -14 11 -38 19 -54 8 -15 15 -33 15 -38 0 -6 20 -44 45 -85
53 -87 150 -195 215 -239 25 -17 47 -34 50 -37 3 -4 15 -10 28 -14 12 -4 22
-12 22 -17 0 -5 7 -9 15 -9 8 0 32 -9 53 -20 22 -11 81 -31 132 -44 75 -19
113 -23 204 -20 61 1 125 5 142 7 48 7 162 47 223 79 98 50 116 63 212 159 81
80 143 175 184 280 25 63 28 74 43 154 9 51 9 248 -1 298 -10 52 -38 139 -50
155 -5 6 -7 12 -4 12 6 0 -51 111 -62 120 -3 3 -12 16 -19 30 -7 14 -33 47
-57 74 -25 27 -45 50 -45 53 0 3 111 116 248 252 l247 247 2577 0 2577 0 11
-55 c33 -167 111 -318 222 -431 40 -42 97 -90 124 -107 57 -36 123 -71 154
-82 19 -7 44 -17 55 -21 58 -23 201 -46 270 -43 54 1 177 20 210 30 11 4 23 8
28 9 4 1 9 3 12 4 3 1 8 3 13 5 119 33 307 170 380 277 9 13 19 25 23 28 14
10 80 140 100 197 67 191 61 407 -15 592 -14 36 -34 76 -43 90 -10 14 -18 28
-18 31 -1 14 -48 71 -115 139 -86 87 -121 115 -180 143 -14 7 -33 18 -42 26
-10 9 -18 12 -18 8 0 -3 -18 3 -39 14 -22 11 -61 25 -88 31 -26 6 -57 13 -68
16 -46 12 -253 10 -315 -3z"/>
</g>
</svg>
